<svg width="21" height="21" viewBox="0 0 21 21" fill="none" xmlns="http://www.w3.org/2000/svg">
<path d="M10.4071 20.3108C10.0067 20.3108 9.65008 20.0553 9.52195 19.676C7.73055 14.3674 6.38914 13.0264 1.08093 11.235C0.702026 11.1065 0.446167 10.7506 0.446167 10.3498C0.446167 9.94944 0.702026 9.59319 1.08093 9.46506C6.38953 7.67365 7.73055 6.33225 9.52195 1.02405C9.65008 0.644357 10.0063 0.388885 10.4071 0.388885C10.8079 0.388885 11.1634 0.644357 11.2923 1.02405C13.0837 6.33225 14.4251 7.67326 19.7333 9.46506C20.1122 9.59319 20.368 9.94944 20.368 10.3498C20.368 10.7506 20.1122 11.1065 19.7333 11.235C14.4247 13.0268 13.0837 14.3674 11.2923 19.676C11.1634 20.0553 10.8075 20.3108 10.4071 20.3108Z" fill="#6F6F6F"/>
</svg>
