<svg width="20" height="19" viewBox="0 0 20 19" fill="none" xmlns="http://www.w3.org/2000/svg">
<path d="M10.0625 18.75C9.68555 18.75 9.35039 18.5094 9.22969 18.1523C7.54336 13.1563 6.28125 11.8941 1.28516 10.2078C0.928125 10.0871 0.6875 9.75195 0.6875 9.375C0.6875 8.99805 0.928125 8.66289 1.28516 8.54219C6.28125 6.85625 7.54336 5.59375 9.22969 0.597656C9.35039 0.240625 9.68555 0 10.0625 0C10.4395 0 10.7746 0.240625 10.8953 0.597656C12.5816 5.59375 13.8438 6.85586 18.8398 8.54219C19.1969 8.66289 19.4375 8.99805 19.4375 9.375C19.4375 9.75195 19.1969 10.0871 18.8398 10.2078C13.8438 11.8941 12.5816 13.1563 10.8953 18.1523C10.7746 18.5094 10.4395 18.75 10.0625 18.75Z" fill="white"/>
</svg>
