<svg width="25" height="26" viewBox="0 0 25 26" fill="none" xmlns="http://www.w3.org/2000/svg">
<path d="M12.5 25.908C11.9973 25.908 11.5504 25.5873 11.3898 25.1111C9.14141 18.4494 7.45859 16.7666 0.797266 14.5185C0.320703 14.3576 0 13.9107 0 13.408C0 12.9053 0.320704 12.4584 0.796875 12.2978C7.4582 10.0498 9.14102 8.36658 11.3895 1.70525C11.5504 1.22908 11.9969 0.908386 12.4996 0.908386C13.0023 0.908386 13.4492 1.22908 13.6098 1.70525C15.8582 8.36658 17.541 10.0498 24.2023 12.2978C24.6785 12.4588 24.9996 12.9053 24.9996 13.408C24.9996 13.9107 24.6789 14.3576 24.2023 14.5185C17.541 16.7666 15.8582 18.4494 13.6098 25.1111C13.4496 25.5873 13.0027 25.908 12.5 25.908Z" fill="#6F6F6F"/>
</svg>
